<?xml version="1.0" standalone="no"?><!DOCTYPE svg PUBLIC "-//W3C//DTD SVG 1.1//EN" "http://www.w3.org/Graphics/SVG/1.1/DTD/svg11.dtd"><svg width="200" height="200" viewBox="0 0 200 200" version="1.1" xmlns="http://www.w3.org/2000/svg" xmlns:xlink="http://www.w3.org/1999/xlink"><defs><style type="text/css"><![CDATA[
@font-face { font-family: ifont; src: url("//at.alicdn.com/t/font_1442373896_4754455.eot?#iefix") format("embedded-opentype"), url("//at.alicdn.com/t/font_1442373896_4754455.woff") format("woff"), url("//at.alicdn.com/t/font_1442373896_4754455.ttf") format("truetype"), url("//at.alicdn.com/t/font_1442373896_4754455.svg#ifont") format("svg"); }

]]></style></defs><g class="transform-group"><g transform="scale(0.1953125, 0.1953125)"><path d="M437.376 88.192 434.816 95.36l64.704 627.776 0 13.888 24.128 0-0.256-10.368 65.792-631.552L589.184 88.192c0-18.816-6.528-18.624-6.848-38.016-17.856-9.472-26.048-27.52-44.864-27.52L499.52 22.656C465.792 22.656 437.376 52.032 437.376 88.192zM517.696 1001.344c29.888 0 65.6-43.968 65.6-82.88l0-6.848c0-40.448-33.28-65.472-75.904-65.472-48 0-82.88 28.672-82.88 75.904l0 3.456c0 32.192 32.32 75.968 62.144 75.968L517.696 1001.472z" fill="#000000"></path></g></g></svg>